<?xml version="1.0" encoding="utf-8"?>
<!-- Generator: Adobe Illustrator 24.3.0, SVG Export Plug-In . SVG Version: 6.00 Build 0)  -->
<svg version="1.1" id="Layer_5" xmlns="http://www.w3.org/2000/svg" xmlns:xlink="http://www.w3.org/1999/xlink" x="0px" y="0px"
	 viewBox="0 0 748.8 763.3" style="enable-background:new 0 0 748.8 763.3;" xml:space="preserve">
<style type="text/css">
	.st0{fill:#EFE3D1;}
	.st1{fill:#394141;}
	.st2{fill:#EFE3D0;}
	.st3{fill:#374042;}
	.st4{fill:#6F7571;}
	.st5{fill:#D5C9B4;}
</style>
<g>
	<path class="st0" d="M743.3,343.4c-2.3-2.2-5.4-3.2-8.5-2.9c-8.8,0.9-10.3,10.1-10.8,13.1c0,0.3-0.1,0.5-0.1,0.7
		c-0.6,3.1-0.9,6.2-1.1,9.1c-0.1,1.4-0.3,2.9-0.4,4.3c-2.3,19.4-7.4,38.9-15.1,58c-6.7,16.7-15,32.1-24.8,45.8
		c-9.3,12.9-21,25.3-36.9,39.3c-9.3,8.2-20,15.6-31.9,22.2c-15,8.3-30.7,14.3-46.8,17.9c-20.7,4.6-40.7,6.2-59.4,4.7
		c-9.1-0.7-17.7-2.1-25.5-4.3c-15.8-4.3-29.4-11.7-39.8-21.6c27.7-66.7,19.8-151.7,14.1-190.2c1-0.3,2.2-0.5,3.5-0.7
		c0.8-0.1,1.7-0.3,2.5-0.4c2.7-0.5,5.4-1.1,8-1.7c0.5-0.1,1-0.2,1.5-0.3c1.6-0.3,3.4-0.7,5.4-1.4c2.1-0.7,4.3-1.6,6.5-2.5
		c2.8-1.2,5.6-2.5,8.4-4c1.2-0.7,2.5-1.4,3.8-2.1c0.6-0.4,1.2-0.7,1.8-1.1l2.1-1.3c3.1-2,6.4-4.3,9-7.7c0.1-0.2,0.4-0.5,0.4-0.5
		l3.1-4.3c8.1-3.3,17.1-7.8,24.1-15.7c1.2-1.3,2.3-2.7,3.3-4.1c0.5-0.7,1-1.4,1.5-2.2c0.2-0.3,1.3-2.2,1.3-2.2l9-15.1l-1.6,0.3
		c11.2-13.1,18.1-27.5,25.3-42.4c2.2-4.5,4.4-9.2,6.8-13.9l0.3-0.7c1.6-4,3.2-8.2,4.7-12.3c2.5-6.6,5.1-13.5,7.9-20
		c0.9-2.2,2.1-4.4,3.4-6.7c0.4-0.8,0.8-1.5,1.3-2.3c4.7-8.7,6.8-19.1,6.4-31.8c-0.1-4.7-0.9-8.5-2.4-11.9c-1.6-3.6-3.6-6.4-6-8.3
		c-0.7-10.3-6.2-23.3-20.7-28.1c-9.5-3.2-19.8-1.7-28.2,3.9c-4,2.7-7.5,6.2-10.3,10.5c-2.3,3.5-3.8,7.1-5.3,10.6
		c-0.5,1.1-0.9,2.2-1.4,3.2l-0.1,0.3c-4.1,10.2-6.8,20.4-9.1,30c-0.2,0.9-0.4,1.9-0.6,2.8c-0.4,1.7-0.7,3.2-1.2,4.6l0,0.1
		c-6.4,19.7-16,36.1-28.4,48.7c-7.7,7.9-15.2,14.3-23.7,19c5.7-5,11.1-10.4,16.1-16.3c6.8-8.1,12.1-16.8,15.7-25.8
		c4.1-10.1,5.9-20.3,5.5-30.2c-0.3-5.9-1-10.9-2.2-15.3c-2.4-9.2-8-16-15.2-18.7c-5.4-2-10.6-1.1-14.5,0c-19.6-5.3-38-18.4-54.2-30
		c-8.7-6.2-16.9-12.1-24.9-16.5c0.4-1.2,0.7-2.4,0.8-2.8c0.8-3.4,1.4-6.8,1.8-10.2c0.7-7,0.2-13.9-1.4-20.4
		c-1.7-6.9-4.6-13.1-8.7-18.6c-4.3-5.7-10-10.7-16.5-14.3C361,3.3,349.7,0.4,337.8,0c-8.3-0.2-15.9,0.8-22.6,3
		c-7.5,2.4-14.2,6.5-19.4,11.8c-7.3,7.4-12.2,17.5-14.2,29.3c-0.7,3.9-1,8-1.1,12.3c0,2.9,0.1,5.9,0.3,8.9
		c-13.9-25.8-36.2-40.8-65.1-43.5c-11.6-1.1-23.7,0.5-35.1,4.6c-21.4,7.7-39.9,24.8-50.9,47.1c-2.2,4.4-3.7,8.1-4.8,11.7
		c-0.7,2.5-1.4,5.1-2,7.8c-0.1,0.5-0.2,0.9-0.3,1.4c-0.4,1.9-0.9,4.2-1,6.7c-0.3,2.7-0.6,5.4-0.7,8c-0.5,12.4,1.4,25,5.5,36.5
		c2.7,7.5,6.3,14.5,10.7,20.9c10,14.3,24.2,25.6,41,32.6c13.8,5.7,28.3,8.1,42.5,7.1c0.4,16.2,4.3,32.2,11.3,46.9
		c0.9,2,3.8,7.9,10.3,9.1c0.4,0.1,0.7,0.1,1.1,0.1l0.3,0.6c-11.3,7.8-22.9,15.2-35.8,18.5c-15.1,4-30.4,0.9-38.8-8
		c-4.6-4.8-7.7-11.4-10.9-18.4c-4.8-10.3-9.8-20.9-20.3-27.7c-9.7-6.2-21.9-7-33.7-2c-14.3,6-25.4,19.2-28.4,33.6
		c-5.9,28.7,12.4,54.3,23.8,67.1c13.4,14.9,29.5,27.2,47.2,36.3l-7.7,0.1l30.6,14.7c16.2,7.8,34.5,10.7,52.3,8.4
		c-3.2,6.1-6.3,12.7-8.7,22.9c-12-3.8-24.1-4.7-35.4-2.7c-10.6,1.9-21,6.7-30,13.9c-5.7,4.5-10.9,10-15.4,16.3
		c-2.4,3.3-3.9,7.2-5.2,10.4c-1.3,3.4-2.4,6.9-3.3,10.5c-1.7,7.3-2.3,15-1.8,22.8c0.4,6.9,1.8,14.1,4,21.2c1,3.3,2.3,6.3,3.6,9.3
		c-3.7-1.1-7.3-1.9-11-2.8c-3.5-0.8-6.9-1.6-10.2-2.6c-1-0.3-2.1-0.6-3.2-1c-2.1-0.7-4.3-1.4-6.7-1.9c-3.6-0.8-7.1-1.3-10.4-1.5
		c-6.6-0.5-16.4,0-23.9,2.9c-8.9,3.5-16.5,11.9-19.8,22c-2.8,8.4-2.2,16.6,1.8,23l0.1,0.1c4.2,6.5,8.7,10.8,13.9,13.1
		c2.3,1,4.7,1.7,6.8,2.3c1.1,0.3,2.2,0.6,3.2,0.9c5,1.7,9.9,3.8,15,5.9c1.1,0.5,2.3,1,3.4,1.4c6.1,2.6,12.3,5.2,18.2,7.9
		c11.2,5,22.9,10.6,34.6,16.6c8.9,4.5,18.3,9.5,28.7,15.2c5,2.7,10.9,5.7,18,5.4c4.1-0.1,8.3-1.4,12.4-3.7c3.4-1.9,7.2-4.3,9.6-8.2
		c3.4-5.6,2.3-11.8,1.7-15.9c-0.1-0.7-0.2-1.3-0.3-2c-0.9-6.5-0.7-13.4-0.5-20c0-1.6,0-3.2,0-4.8c0-2.2,0-4.2,0.1-6.2
		c0.1-1.3,0.3-3.8,0.6-4.4c0,0,0.1-0.1,0.2-0.1c3.2-1.8,7-3,11.3-3.5c8.9-1.1,18.1,0.4,30.7,4.9c7.1,2.6,12.7,4.9,17.7,7.5
		c3.8,2,7.5,4.2,11.4,6.5c1.7,1,3.4,2,5.1,3l0.2,0.1c2.4,1.4,4.9,2.9,7.6,4.2c0.1,3.3,0.5,6.4,1,9.3c0.9,5.8,2,10.9,3.5,15.5
		c4.6,14.4,13.4,26,20.1,33.2c7.2,7.7,15.6,14.3,25.3,19.6c2.8,1.5,5.8,3,8.9,4.3c1.7,1,3.5,1.7,5.1,2.3c-1.2,2.7-2.7,5.1-4.1,7.4
		c-3.2,5-6.8,9.6-10.9,13.9c-3.9,4.1-8.4,7.7-13.7,11.2c-1.5,1-3.1,1.9-4.8,3c-8,4.8-17.2,10.3-21.6,20.6c-3.2,7.4-4.1,16.4-2.5,24
		c1.2,5.3,4.3,9.7,8.6,12.2c2.8,1.6,5.7,2,7.8,2.3c0.4,0.1,0.8,0.1,1.2,0.2s1.2,0.4,1.9,0.7c0.8,0.3,1.7,0.7,2.7,1.1
		c2.7,0.9,5.4,1.6,8.2,2c2.9,0.5,5.9,0.7,8.9,0.7c9.4,0,19.4-2.3,28.8-6.6c11.3-5.2,20.5-11.6,27.5-18.9
		c6.9-7.3,13.7-16.7,20.3-28.1c4.6-8,7.8-16.2,10.8-24.2c0.5-1.4,1.1-2.8,1.6-4.2c2.7-6.9,4.5-12.7,5.7-18.3
		c1.4-6.2,2.5-13.6,0.7-20.6c-1.5-6-5-10.1-8.6-13.6c-1.6-1.6-3.2-2.8-4.6-3.8c-1.6-1.2-2.9-2.2-3.6-3.2c-4.4-6.6-5-16.1-2-28.9
		c0.8-3.5,1.9-6.5,3.3-9.1c0.4-0.7,0.8-1.4,1.3-2.2c0.3,0.2,0.7,0.5,1,0.7c2.8,1.8,5.7,3.6,8.9,5.2c11.4,5.9,24.6,10.4,40.3,13.7
		c13.2,2.7,26.9,4.2,40.8,4.4c14.5,0.2,29.2-1.1,43.6-3.9c9.3-1.8,18.5-4.2,27.5-7.2c13.3-4.4,26.4-10.2,38.9-17.1
		c8.9-5,17.7-10.6,26-16.7c11-8.1,21.6-17.4,31.5-27.6c9.3-9.6,18-20.1,25.6-31.1c7.2-10.5,13.6-21.6,19-32.9
		c5.4-11.3,9.9-23.1,13.5-34.9c3.5-11.9,6.1-24,7.6-36c1.3-10,1.8-18.2,1.8-25.8c0-0.3,0-0.6,0-1.1
		C748.9,355.6,748.1,347.8,743.3,343.4z"/>
	<circle class="st0" cx="338" cy="384.4" r="338"/>
	<ellipse class="st0" cx="338" cy="746.8" rx="169.9" ry="16.6"/>
	<path class="st1" d="M280.3,83.2c-0.1,0.1-0.2,0.1-0.3,0.1c-12.3-33.7-35.4-50.7-65.1-53.4c-10.7-1-21.6,0.6-31.7,4.2
		c-20.5,7.4-36.8,23.7-46.4,43.1c-1.7,3.4-3.2,6.8-4.3,10.5c-0.7,2.4-1.3,4.7-1.8,7.1c-0.5,2.2-1.2,4.7-1.2,7
		c-0.3,2.6-0.6,5.2-0.7,7.8c-0.5,11.3,1.2,22.8,5,33.5c2.4,6.7,5.7,13.2,9.7,19c18.5,26.7,53.2,41,85.1,35.3
		c-1.1,18,2.5,36.2,10.4,52.5c1,2.1,2.3,4.3,4.6,4.7c2.2,0.4,4.6-2.8,2.8-4.2c2.4,5.2,4.8,10.3,7.3,15.5
		c-13.7,9.6-27.7,19.3-43.9,23.6s-35.1,1.9-46.6-10.1c-12.6-13.1-14.5-35-29.8-44.9c-18.6-12-45.4,4.8-49.9,26.5s7.2,43.6,21.9,60.1
		c22.8,25.4,54.1,42.9,87.6,49c-6.7,0.1-13.3,0.2-20,0.3c19.5,9.4,42.7,11,63.3,4.3c-6.6,16-13.6,21.4-17.1,45.2
		c-12.6-5.6-26.5-8.2-40.1-5.7c-9.7,1.8-18.8,6.2-26.5,12.3c-5.3,4.2-9.9,9.2-13.9,14.7c-1.8,2.5-3.1,5.8-4.2,8.7
		c-1.2,3-2.2,6.2-2.9,9.3c-1.5,6.7-2,13.7-1.6,20.5c0.4,6.6,1.7,13,3.6,19.3c1.9,6.3,5,12,7.2,18.1c0.9,2.5,1.6,5,1.9,7.6
		c-11.2-6.7-24.2-8.2-36.5-11.8c-3.1-0.9-6.2-2.2-9.3-2.8c-3.1-0.7-6.2-1.2-9.4-1.4c-6.2-0.5-14.5,0.1-20.3,2.4
		c-12,4.7-20.9,22.4-14.1,33.4c2.6,4,6,8.2,10.5,10.2c2.9,1.3,6.3,1.9,9.3,2.9c6.4,2.2,12.7,4.9,18.9,7.5c6.2,2.6,12.3,5.2,18.4,8
		c11.8,5.3,23.4,10.9,34.9,16.7c9.7,4.9,19.3,10.1,28.9,15.3c4.3,2.3,8.9,4.6,13.9,4.5c3.1-0.1,6-1.2,8.7-2.7
		c2.3-1.3,5.3-3.1,6.7-5.4c2.2-3.7,0.8-8.7,0.3-12.6c-0.9-7-0.8-14.2-0.6-21.2c0.1-3.8-0.2-7.6,0.1-11.3c0.3-4.5,0.6-8.6,4.9-10.9
		c4.4-2.5,9.3-3.8,14.3-4.4c11.9-1.4,23.2,1.3,34.4,5.4c6.3,2.3,12.6,4.8,18.6,7.9c5.8,3,11.3,6.5,16.9,9.8
		c3.8,2.2,7.7,4.5,11.9,5.9c-0.5,4.4,0.1,9,0.7,13.4c0.7,4.8,1.7,9.6,3.2,14.2c3.5,11.1,10.4,21.6,18.3,30.1
		c6.7,7.2,14.6,13.3,23.2,18c2.8,1.5,5.7,2.9,8.7,4.2c3.4,2.1,7.4,2.8,10.9,4.7c0.1,0.1,0.2,0.1,0.3,0.2c0,0.1,0,0.2,0,0.3
		c-1.2,5.7-4,10.9-7.1,15.8c-3.4,5.4-7.4,10.5-11.8,15.1c-4.6,4.8-9.5,8.8-15.1,12.4c-8.4,5.5-19.2,10.2-23.4,20
		c-2.5,5.8-3.3,13-2,19.1c0.6,2.8,2.2,5.4,4.7,6.9c2,1.1,4.2,1.2,6.4,1.6c2.1,0.4,3.9,1.4,5.9,2.1c2.3,0.8,4.6,1.3,6.9,1.7
		c11,1.8,23-0.6,33-5.3c9.2-4.3,18.1-9.9,25.1-17.2c7.4-7.7,13.8-17.3,19.2-26.6c5-8.8,8.3-18,11.9-27.4c2.2-5.6,4.1-11.3,5.3-17.1
		c1.2-5.4,2.1-11.5,0.7-16.9c-1.1-4.1-3.6-7-6.5-10c-3-3-6.9-4.7-9.2-8.3c-6.8-10.3-5.8-23.6-3.1-35.1c0.9-3.8,2.1-7.5,3.9-11
		c0.9-1.7,2-3.4,3.1-5c1.1-1.6,2.1-3.2,3.1-4.9c0-0.1,0.1-0.1,0.2-0.2c0.1,0,0.2,0,0.2,0.1c2.4,1.8,4.6,3.8,7.2,5.5
		c2.6,1.7,5.3,3.3,8.1,4.8c12,6.3,25,10.2,38.2,12.9c12.9,2.7,26.1,4,39.3,4.2c14.1,0.2,28.1-1.1,41.9-3.7c9-1.7,17.8-4,26.5-6.9
		c13-4.3,25.6-9.9,37.5-16.5c8.7-4.8,17.1-10.3,25.1-16.2c10.9-8,21.1-17.1,30.6-26.8c9.1-9.3,17.4-19.4,24.7-30.1
		c6.9-10.1,13.1-20.7,18.4-31.8c5.2-10.9,9.6-22.2,13-33.7c3.4-11.3,5.9-22.9,7.3-34.7c1-8.2,1.8-16.5,1.7-24.8
		c0-3.3,0.9-19.3-5.2-18.7c-3,0.3-3.4,5.1-3.8,7.4c-0.8,4.3-1,8.5-1.5,12.8c-2.5,20.6-7.9,40.8-15.6,60
		c-6.7,16.8-15.2,32.8-25.7,47.5c-11,15.1-24.1,28.3-38.1,40.6c-10.1,8.9-21.5,16.6-33.3,23.1c-15.3,8.5-31.9,14.9-49,18.7
		c-20.1,4.4-41.1,6.5-61.8,4.9c-9.1-0.7-18.2-2.1-27-4.5c-17.8-4.9-34.6-13.9-47.2-27.6c35.6-79.3,15.9-188.3,14.6-197.3
		c-0.1-0.6,5.7-2.1,6.3-2.2c2.2-0.7,4.7-0.9,7-1.4c2.6-0.5,5.2-1,7.8-1.6c2-0.4,4-0.8,6-1.4c2-0.7,4-1.5,6-2.3
		c2.6-1.1,5.2-2.3,7.7-3.7c1.2-0.6,2.4-1.3,3.5-2c0.6-0.3,1.2-0.7,1.8-1.1c0.4-0.2,1.3-1.1,1.7-1.1c2.5-1.6,5.1-3.5,7-5.9
		c0.1-0.1,0.2-0.3,0.2-0.3l-8.1-1.6c0,0,1.2-0.5,1.5-0.6c0.6-0.2,1.1-0.4,1.7-0.6c1.1-0.4,2.1-0.8,3.2-1.2c2.1-0.8,4.3-1.5,6.4-2.3
		c8.6-3.3,17-7.5,23.2-14.4c1-1.1,1.9-2.2,2.7-3.4c0.4-0.6,0.8-1.2,1.2-1.8c0.2-0.3,1.2-2,1.2-2s-6.8,1.2-11.4,1.7
		c28.8-20,36.8-45.3,50.6-72.3c4.2-10.6,8.2-21.8,12.6-32.4c1.4-3.4,3.3-6.5,5-9.7c4.5-8.5,5.7-18.3,5.5-27.8
		c-0.1-3-0.5-6.1-1.7-8.9c-1.2-2.6-3.5-6.5-6.7-6.8c0.7-5.9-1.2-20.7-15.1-25.3c-7.2-2.4-15-1.3-21.2,2.9c-3.2,2.1-5.9,5-8,8.2
		c-2.6,3.9-4.1,8.4-6,12.7c-3.8,9.4-6.4,19-8.8,28.9c-0.7,2.7-1.1,5.5-2,8.1c-6.9,21.2-17.3,38.6-30.3,51.9
		c-17.8,18.1-35.1,29.4-65.9,30.5c16.8-11.1,33.4-23.1,46.3-38.6c6-7.1,11-15.1,14.4-23.7c3.4-8.5,5.3-17.6,4.9-26.8
		c-0.2-4.5-0.7-9.3-1.9-13.7c-1.4-5.4-4.8-11.2-10.3-13.3c-3.4-1.3-7.3-0.5-10.7,0.6c-0.3,0.1-0.5,0.2-0.8,0.3
		c-35.5-8.5-65.2-40.1-89.2-50.8c0.2,0.1,2.7-8,2.9-8.8c0.7-3,1.3-6,1.6-9c0.6-5.9,0.2-11.9-1.2-17.7c-1.4-5.7-3.9-11.1-7.3-15.7
		c-3.7-5-8.6-9.1-14-12.1c-8.7-4.8-19-7.2-28.9-7.4c-6.7-0.2-13.6,0.5-19.9,2.6c-6.1,2-11.7,5.3-16.2,9.8c-6.7,6.8-10.5,15.8-12,25
		c-0.6,3.7-0.9,7.4-1,11.1c-0.1,7.3,0.8,14.6,2.4,21.8C286.2,79.5,283.8,81.2,280.3,83.2z"/>
	<path class="st2" d="M285.7,99.8c0,0,2.7-1.4,3-1.5c2.7-1.3,5.4-2.5,8.1-3.6c6.2-2.4,12.5-4.5,19.1-5.8c13.5-2.6,27.6-1.7,40.9,1.5
		c11,2.6,21,7.2,31,12.3c12,6.1,23.6,12.8,34.4,21.1c3.7,2.8,7.7,5.3,11.7,7.7c5,3.2,10.4,5.7,15.7,8.3c4.9,2.4,9.9,4.6,15.1,6.4
		c0.1,0.5-0.3,1.5-0.4,2c-0.3,1.6-0.5,3.2-0.6,4.7c-0.6,7.3,2,15.5,7.3,20.6c1.6,1.5,3.6,3.3,5.7,4c-1.2,3.4-3.1,6.3-5.1,9.3
		c-3.1,4.6-6.5,9-10.3,13.1c-7.7,8.4-17.4,15.3-28.9,17.1c-6.6,1-13.4,0.7-19.6-1.6c-4.3-1.6-9.4-3.2-13-6.1
		c-0.6-0.5-1.7-1.4-1.9-2.2c-0.5-1.9,1.4-3,1.4-3c2.5-1.4-2.1-3.2-3.1-3.5c-2.3-0.6-5.1-1.3-7.4-0.8c-1.8,0.4-2.8,1.6-3.3,3.3
		c-0.3,1.2-0.3,2.7-1.8,3c-1.8,0.4-3,4.8,4.3,13.8c3.6,4.5,8.3,8.1,13.4,10.7c2.6,1.3,5.3,2.3,8.1,3c3,0.7,6,0.7,9.1,0.9
		c0.9,0.1,3.5-0.1,4.1,0.9c-2.8,2.5-14.9,8.5-14.9,8.5s-35.2,13.2-37.4,18.4c-1.2,2.8,21.2-0.1,22.8,0.6c0.7-0.1-6.7,2.5-6.4,3
		c0.6,0.9,1.4,1.6,2.2,2.3c5.6,5,11.8,9.5,16.4,15.4c4,5.1,6.3,11.9,9.4,17.6c0.6,1,1.1,2.1,1.7,3.1c2.6,2.9,2.4,6.4,3.7,9.2
		c0.7,1.4,1.7,2.6,2.4,4c0.6,1,0.9,2.1,1.3,3.3c1.8,6.8,2.6,15.2,3.1,22.2c0.4,5.5,1.2,10.6,1.4,16.1c0.1,2.5-0.2,7.5-0.3,10.1
		c-2.9-6.2-5.9-12.5-9.3-15.5c-1.3-1.2,0,2.8,0.1,3.1c0.5,2.2,1.1,3.9,1.8,6c0.9,2.8,1.4,6,1.5,8.9c0,3.4,0,6.1,0,9.5
		c0.1,6.7,0.4,15.6,0.2,22.3c-0.1,2.7-2.8,6.4-4.6,8.6c-1-1-1.2-4-1.6-5.4c-0.3-1-3-11.7-4-11.6c-0.9,0.1-0.3,1.4-0.5,2.1
		c-0.7,2.4-1.2,4.8-1.7,7.2c-0.8,3.6-1.7,7.2-2.7,10.7c-3.5,12.8-8.5,24.7-15.3,36c-6.7,11-16.1,20.4-25.4,29.2
		c-5.1,4.8-10.5,9.2-15.9,13.7c-5.2,4.4-10,8.2-15.1,12.7c-9,8.1-17.5,17.7-23.5,28.1c-2.1,3.7-4,7.4-5.7,11.3
		c-5.6-1.3-11-3.3-16.2-5.6c-8.7-3.9-16.5-10-23.6-16.2c-9.1-7.9-18.1-16.1-23.6-26.9c-4.3-8.6-7.4-17.8-9.3-27.2
		c-1.6-8-3.7-15.1-2.7-23.3c1.6-12.9,6.8-25,11.7-37c5-12.1,10.9-23.8,15.8-35.9c5.2-12.8,7.6-26.2,10.6-39.6
		c1.5-6.6,2.9-13.5,3.9-20.3c0.9-6.4,1.2-12.9,1.4-19.4c0.2-6.5-0.3-12.3-0.8-18.7c-0.1-0.6-1.1-1.5-1.1-1.5
		c2.4-2.7,3.1-2.6,4.1-3.6c0.8-1.1,1.9-2,2.6-3.2c0.1-0.1-3.2-3.1-3.4-3.3c-6.6-6.8-11.9-14.8-15.7-23.5c-2.3-5.3-4.6-11.1-5.2-16.8
		c-0.1-0.7-0.1-1.4,0-2.1c-1,0.8-2,1.7-2.9,2.6c-0.7,0.7-1.4,1.5-2,2.3c-0.2,0.3-0.3,0.7-0.6,1c-0.3,0.4,0,0.8-0.5,0.3
		c-0.4-0.4-0.4-1.9-0.5-2.5c-0.2-0.8-0.3-1.7-0.5-2.5c-0.3-1.8-0.6-3.5-0.9-5.3c-1.4-9.8-1.7-19.7-1.7-29.6c0-0.2,0-0.3,0.1-0.5
		c0.1-0.2,0.4-0.3,0.7-0.4c0.6,0,1.2,0.1,1.7,0c1.7-0.3,2.6-1.3,2.2-3c-0.4-1.5-1.7-2.6-3.3-2.4c-4.6,0.6-9.1-0.1-13.7-0.1
		c-0.3,0-3.9-0.7-3.8-0.7c1.5-1.5,4.2-1.6,6.1-2.2c2.8-1,4.4-2.3,7.1-3.7c2-1,5.1-2.5,5.9-5.3c-3.9,1.1-10.8,1-10.7,0
		c0.4-3.1,2.5-3.7,4.9-5.7c2.3-1.9,7.1-4.2,8.1-7.1c0.3-0.9-2.1,0-2.4,0c-1.3,0.2-2.5-0.1-3.7,0.2c-0.3,0.1-5.3,0.7-5.4,0.9
		c0.6-2.4,4.9-5.1,9.9-7.9c0.3-0.2,1.6-2,1.8-2.3c0.7-1.5,2-2.2,2.3-3.8c0.9-6.4-0.1-12.9-1.2-19.2c-2.1-13-7.7-24.3-14.7-35.6
		c-6.5-10.4-14.6-19.9-25.5-25.7c-8.3-4.4-16.8-6.4-26.1-6.7c-2.9,0.4-5.9,2.4-8.4,3.6c-1.7,0.8-3.3,1.7-5,2.5
		c-0.9,0.5-3.4,1.6-4.4,1.8c0.1,0,0.2-0.2,0.3-0.3c0.1-0.1,0.2-0.2,0.3-0.4c0.2-0.2,0.4-0.5,0.6-0.7c0.4-0.4,0.9-0.9,1.3-1.3
		c1.8-1.7,3.8-3.2,6-4.5c0.9-0.5,1.8-1,2.7-1.5c2-1,4.1-1.8,6.3-2.5c2-0.6,4-1,6-1.4c4.1-0.7,8.3-0.9,12.5-0.7
		c12.8,0.8,25.2,4.4,36.3,10.9c10.1,5.9,17.5,15.2,23.2,25.3c3,5.4,4.6,11.4,7.7,16.7c2.3,4,5.2,7.7,8.7,10.8
		c1.8,1.5,3.7,2.8,5.8,3.9c1.3,0.7,3.1,1.9,4.6,2.1C290.9,110.2,285.7,99.8,285.7,99.8z"/>
	<path class="st3" d="M387.1,145.2c-0.2-0.6-0.5-1.1-0.8-1.7c-0.8-1.6-1.9-3.3-3.4-4.3c-1.4-1-3.2-1.4-4.9-1.4c-3.4,0-6.8,1.9-8.3,5
		c-1.4,3.1-0.4,7.2,2.6,9c0.4,0.2,0.8,0.4,1,0.7c0.4,0.5,0.2,1.2,0,1.9c-1.2,4-3.6,7.5-6.8,10.1c-4.8,3.8-11.2,5.3-17.2,4.2
		c-6-1.1-11.4-4.6-15.1-9.5c-0.7-0.9-1.4-1.9-2.3-2.6c-1.2-0.8-2.7-1-4.2-1c-2,0-5.7,0.6-6.4,2.9c-0.4,1.2,0.2,3.1,0.6,4.3
		c0.5,1.5,1.2,2.9,2.1,4.2c1.7,2.6,4.1,4.8,6.5,6.7c5.2,4,11.1,7,17.5,8.4s13.1,1.3,19.3-0.9c2.7-0.9,5.2-2.2,7.7-3.6
		c3.6-2,7-4.4,9.6-7.7C390,163.1,390.5,153.2,387.1,145.2z"/>
	<path class="st4" d="M247,182.3c0,0-1.9,0.5-2.7,0.7c-2.7,0.6-5.5,1-8.3,1.2c-10.8,1-22,0.6-32.6-1.2c-12.4-2.1-23.6-7.9-33.1-16
		c-4.3-3.7-8.5-7.9-11.8-12.5c0,0-14.5-15.8-10.8-47.3c1.5-12.7,6.3-25,14.1-35.2c3.1-4,6.6-8,10.8-10.8c6.2-4.2,13.1-5.9,20.6-4.9
		c6.5,0.9,12.5,3.5,18.3,6.4c5.2,2.6,10,5.9,14.3,9.7c4.5,4.1,8.5,8.8,11.7,14c3.6,5.7,7,11.6,9.4,17.9c2.4,6.3,4.2,12.9,5.4,19.6
		c1.9,10.9,4.1,25-7.3,31.6c-1.4,0.8-2.9,1.2-4.4,1.9c3.8-0.4,7.7-0.8,11.5-1.2c-1.3,4.3-13.6,13.8-13.6,13.8s6.9,0.4,10.4-0.3
		c-1.8,6.5-18,11.5-18,11.5L247,182.3z"/>
	<path class="st4" d="M274.2,272.8c-6.1,5.6-12.7,10.8-19.6,15.4c-5.6,3.8-11.6,7-17.7,10c-5.9,2.8-12,5.6-18.4,7.1
		c-3.4,0.8-6.8,1.3-10.2,1.6c-2.6,0.2-5.3,0.3-7.9,0.4c-11.2,0.3-23-0.2-33-5.9c-11.6-6.7-21.5-15.2-26.6-23s-12.1-23.7-13.1-25.3
		c-1.1-1.6-4.1-6.8-11.2-6.5c-2.8,0.5-5.3,2.2-4.8,5.4c0.3,2.2,1.8,3.9,2.8,5.7c1.2,2,1.9,4.3,2.3,6.6c0.3,1.7,0.8,3.4,1.1,5.2
		c0.4,1.8,0.7,3.5,1,5.3c0.4,2.5,1,4.9,0.9,7.4c-2.7-0.7-4.9-2.4-6.9-4.2c-2.7-2.4-4.9-5.5-6.4-8.8c-0.7-1.6-1.8-7-4.4-6.2
		c-4.4,1.2-4.2,8-4.2,8c0.1,3.3,1.3,6.7,2.6,9.7c2.5,5.9,6,11.1,9.6,16.3c3.8,5.6,7.7,11.4,12.3,16.3c3.5,3.8,7.4,7.1,11.3,10.4
		c4,3.4,8,6.8,12.4,9.5c5,3.1,10.3,5.6,15.7,8c11.3,5.1,23,8.9,35.4,10.5c0.3,0,0.5,0.1,0.8,0.1c2.1,0.2-8.2,5.3-8.2,5.3
		s4.6,1.1,14.7-0.9s13.3-4.7,20.8-5.6c7.5-0.9,7.1-0.4,7.1-0.4c-0.9,2.2-4.9,5.4-8.8,8.5c0,0,5.3,0,9.5-1.8c4.4-1.9,8.4-4.9,12-8
		c5.4-4.5,9.7-9.9,14-15.4c3.2-4,6.6-7.9,9.3-12.3c2.5-4.2,4.1-8.9,5-13.7c1.9-10.2,1.5-20.9,1.1-31.2
		C274.4,276.1,273.9,273.1,274.2,272.8z"/>
	<path class="st4" d="M382.9,263.4c0,0,12-3,25-1c19.4,2.9,40-0.2,58.2-7.4c17.7-6.9,34.3-18.5,46.6-33.1
		c6.4-7.6,12.5-15.6,17.5-24.2c4.1-7,7-14.5,10-22c2.9-7.1,6.1-14.3,8.2-21.7c1.1-3.8,2.8-7.4,3.9-11.2c1.3-4.4,1.5-9.3,3-13.6
		c1.2-3.4,2.9-7.3,6.6-8.7c3-1.1,14.1-2.5,11,3.9c-0.4,0.8-1.1,1.5-1.7,2.1c-4.5,4.9-6.1,12.4-6.7,18.9c-0.9,9.5-1.1,12.1-1.1,12.1
		c0.1-1.4,1.6-3.6,2.2-4.8c0.8-1.7,1.7-3.3,2.7-4.9c2-3.1,5-6.1,8.7-7.2c0.9-0.3,1.9-0.4,2.6,0.4c0.4,0.4,0.5,1,0.6,1.5
		c0.5,2.4,0.9,5.3,0.5,7.8c-0.4,2.4-1.7,5-2.5,7.3c-2.1,6-4.8,11.8-6.7,17.9c-2.6,7.1-5.1,14-8.2,20.9c-8.2,18-16.3,36.4-27.8,52.6
		c-3.3,4.6-6.8,9.2-11.1,12.8c-11.1,11.2-28.2,24-28.2,24s12.5-1.4,12.5-1.4c-1,0.1-2.6,1.7-3.5,2.2c-3.3,2-6.6,3.9-10,5.7
		c-8.5,4.5-17.2,8.5-26.1,11.9c-1.3,0.5-17.9,6-17.8,6.2c0.4,2.1,4.1,4.2,8.1,6.3c-0.8-0.4-3,0.1-3.8,0.1c-2.9,0-5.9,0-8.8,0
		c-4.9,0-9.7-0.3-14.6-0.8c-2.2-0.2-4.5-0.5-6.7-0.9c-0.8-0.2-5-0.7-5.4-1.6C407.5,281.1,382.9,263.4,382.9,263.4z"/>
	<path class="st4" d="M422.8,317.8c0,0,0.6,1.1,0.9,1.6c0.3,0.6,0.6,1.1,0.8,1.7c0.3,0.6,0.5,1.1,0.8,1.7c0.3,0.6,0.5,1.1,0.8,1.7
		c0.2,0.6,0.5,1.2,0.7,1.7c0.2,0.6,0.5,1.2,0.7,1.7c0.2,0.6,0.4,1.2,0.6,1.8c0.2,0.6,0.4,1.2,0.6,1.8c0.2,0.6,0.4,1.2,0.6,1.8
		c0.2,0.6,0.4,1.2,0.5,1.8c0.2,0.6,0.3,1.2,0.5,1.8c0.2,0.6,0.3,1.2,0.5,1.8c0.2,0.6,0.3,1.2,0.5,1.8c0.1,0.6,0.3,1.2,0.4,1.8
		c0.1,0.6,0.3,1.2,0.4,1.8c0.1,0.6,0.2,1.2,0.4,1.8c0.1,0.6,0.2,1.2,0.3,1.8c0.1,0.6,0.2,1.2,0.3,1.9c0.1,0.6,0.2,1.2,0.3,1.9
		c0.1,0.6,0.2,1.2,0.3,1.9c0.1,0.6,0.2,1.2,0.2,1.9c0,0.1,0,0.2,0,0.3c0.4,3.7,0.8,7.4,1.1,11.1c0.7,6.3,1.3,12.5,1.6,18.8
		c0.9,14.3,0.1,28.5-0.5,42.8c-0.2,5.3-0.3,10.6-0.2,16c0.2,9.2,0.6,18.1-1.4,27.2c0,0-2.5-17.2-4.7-18.5c-0.1-0.1-1.9,6.2-2,6.7
		c-0.5,2.5-0.7,5.1-0.8,7.7c-0.3,6.7-0.6,13.5-1.3,20.2c-0.8,6.9-2.6,13.6-3.9,20.4c-1.3,7.1-2.6,14.2-3.8,21.3
		c-0.2,1.5-0.5,2.9-0.8,4.4c0,0,0.2-20.5-0.9-23.3c0,0.1-1.4,1.8-1.6,2c-0.5,0.8-0.9,1.5-1.2,2.4c-0.8,1.9-1.3,3.9-1.8,6
		c-1.6,6.9-3.6,13.8-5.5,20.7c-1.8,6.9-3.4,13.8-4.9,20.8c-0.5,2-0.9,4.1-1.3,6.2c-0.4-6.3-0.6-13.5-2.1-15.6
		c-0.5-0.7-2.1,3.5-2.3,3.9c-1.2,4.4-2,8.9-2.9,13.3c-1,5.1-2.3,10.1-2.8,15.3c-0.5,4.7-0.6,9.5-0.7,14.3c-0.2,6.4,2.1,13.1,4.5,19
		c2.3,5.7,5.5,11.1,9.3,15.9c2.6,3.4,5.6,6.6,8.6,9.6c1.1,1.1,2,2.5,1.4,4.4c-1.8,5.6-2.9,11.5-4.9,17.1c-1.4,3.9-2.8,7.9-4.7,11.6
		c-1.7,3.6-3.8,7-5.5,10.6c-2.8,5.9-6,11.6-9.6,17c-4.6,7-10.2,13.4-16.7,18.7c-4.6,3.8-10,7.2-16,8.1c-1.4,0.2-4.3,0.8-4.7-1.3
		c-0.3-1.3,0.8-2.8,1.5-3.7c1.2-1.7,2.7-3.2,4.2-4.6c1.3-1.5,2.6-3,3.7-4.7c0.5-0.8,2-2.9,0-2.6c-2.9,0.5-5.8,1.1-8.6,2
		c-4.7,1.6-8.4,4.7-12,8.1c-1.2,1.2-2.4,2.4-3.6,3.6c-0.6,0.6-1.1,1.2-1.7,1.8c-0.3,0.3-0.9,0.5-1.1,0.9c-0.8,1.1-3.2,0.1-4.1-0.3
		c-1.8-1-2.9-2.8-1.6-4.6c3.6-5.1,8.4-9.6,13.4-13.3c4.8-3.5,10-6.4,14.6-10.1c4.9-4,8.9-9,12.8-13.9c0.2-0.2,0.4-0.5,0.5-0.7
		c3.9-4.9,7.1-10.4,10.3-15.7c3.3-5.5,5.6-11.3,7.9-17.3c0.5-1.3,0.8-2.8,0.2-4c-0.3-0.7-0.9-1.3-1.5-1.8
		c-4.7-4.3-9.9-8.1-15.4-11.3c-11.4-6.4-22.6-13.3-30.9-23.6c-8.3-10.3-14.3-22.2-16.1-35.4c-1.2-8.6-2.2-18-0.3-26.6
		c1-4.6,1.6-9.3,2.4-13.9c1.2-7,3-13.9,4.1-21c0.3-2.1,0.8-6.1,0.8-6.1s0.1-0.5,0.2-0.7c0.1-0.2,0.3-0.4,0.5-0.6
		c10.8-9.3,21.6-18.5,32.2-28c4.1-3.7,8-7.6,11.9-11.5c9.2-9.2,16.8-20.1,22.3-31.9c5.6-12,10-24.6,12.7-37.5c0.5-2.5,1-4.9,1.3-7.4
		c0-0.2,2.1,2,2.2,2.2c2.5,4,3.1,8.8,4.1,13.3c0.1,0.3,0.1,0.5,0.2,0.8c2.6-0.5,2.6-5.5,2.8-7.4c0.8-7.9,0.5-16.2,0.3-24.1
		c-0.1-3.8,0.1-7.7-0.3-11.5c-0.2-1.9-0.5-3.9-1.1-5.7c-0.5-1.8-1.4-3.4-1.6-5.2c-0.2-1.4-0.3-2.7-0.3-4.1c0,0.1,0.9,0.7,1,0.8
		c1.1,1,2,2.2,2.8,3.4c1.1,1.6,2.1,3.3,3.1,5c1,1.7,1.6,3.7,2.7,5.4c0.8-0.7,0.4-3.5,0.3-4.4c-0.1-2.9-0.3-5.8-0.6-8.7
		c-0.9-10.3-2-20.6-3.6-30.8c-0.1-0.4-0.1-0.8-0.2-1.3c-0.1-0.5-0.2-1-0.3-1.5c-0.1-0.4-0.2-0.8-0.3-1.3
		C422.9,318.4,422.8,317.8,422.8,317.8z"/>
	<path class="st4" d="M233.1,460.4c-0.5-5.2-1.4-11.2-4.9-15.1c-4-4.3-11-5.4-16.2-7.8c-10.9-4.9-23.9-7.5-35.3-2.7
		c-3.1,1.3-6,3.1-8.9,4.7c-4.6,2.5-8.2,7.1-10.8,11.5c-2.9,4.9-5.1,10.5-5.7,16.3c-0.7,6.8-0.7,13.9,0.3,20.7
		c1,6.7,3.6,13.1,6.3,19.3c2.5,5.8,4.8,11.6,7,17.5c1.3,3.5,2.8,6.8,4,10.3c1.2,3.5,1.6,6.9,1.9,10.5c0.1,1,0.9,4.5-0.5,4.9
		c-3.1-0.2-3.1-2.1-6.7-2.6c-1.5,1.3-0.4,8.4-0.4,8.4c-10.6-8.4-22.5-14.5-35.1-19.4c-12.4-4.8-25.5-9.4-38.9-10.5
		c-4.9-0.4-9.5-0.4-13.9,2c-1.6,0.9-3.4,1.9-4.5,3.5c-1.2,1.8-1.3,4.2-1,6.3c0,0.3,0.1,0.7,0.4,0.9c0.2,0.2,0.5,0.2,0.8,0.1
		c2.3-0.1,4.3-1.4,6.4-2.2c4.9-1.9,10-1.4,15-0.5c4.6,0.9,9.4,2.3,13.2,5.2c-9.4,2.2-12.8,3.3-17.7,6.8c0.4-0.3,2.5,0.5,2.9,0.6
		c2.6,0.5,5.2,1.1,7.8,1.8c6.5,1.6,12.7,4.4,19.1,6.7c12.9,4.5,25.7,9.6,37.9,16c4.3,2.3,8.6,4.5,13,6.7c2.2,1.1,4.4,2.2,6.5,3.3
		c1.1,0.5,2.2,1,3.3,1.6c0.7,0.4,2,1.5,2.8,1.5c0.9,0,2.8,1.5,3.6,2c0.9,0.5,2.2,2,3.3,2c0.7,0,1.3-0.6,1.6-1.2
		c0.3-0.8,0.3-1.9,0.2-2.8c-0.9-5.5-1.6-10.9-2.1-16.4c-0.6-6.8-0.9-13.6-0.1-20.4c0.9-7.8,3.6-14.4,9.8-19.5
		c4.7-3.8,10.1-6.7,15.9-8.4c6.1-1.8,12.6-2.3,19-1.6c6.4,0.7,12.6,2.6,18.8,4.2c6.5,1.8,12.9,4.1,19,6.8c4.2,1.8,12.5,5.2,12.5,5.2
		s-1.5-1.1-2.2-1.6c-2-1.5-4-3-6-4.6c-10-8.1-19.6-16.8-26.8-27.5c-7.5-11-12-24.1-14-37.3C233.4,463.8,233.3,462.1,233.1,460.4z"/>
	<path class="st5" d="M249,198.4c0.8-1.4,2.1-2.4,3.3-3.5c1.2-1.1,2.5-2.2,3.9-3c4.2-2.4,9-3.8,13.9-3.9
		c-4.2,8.2-7.8,16.6-10.8,25.2c2-3,4.9-5.4,8.1-7c-1.6,8.6-1.7,17.5-0.3,26.1c1.9-3.7,4.5-7,7.5-9.7c-0.4,5.2,3.7,9.7,4.3,14.8
		c3.3-2.5,5.6-6.2,6.3-10.3c2.7,9.8,6.9,19.1,12.6,27.5c-4.7-1.5-8.9-4.3-12.1-8c0.7,4.3,2.7,8.3,5.5,11.5
		c-5.8-0.6-10.6-4.8-14.9-8.8c0.9,2.4,1.8,4.9,2.7,7.3c-5.1-1.7-9.5-5.2-12.8-9.5s-5.4-9.4-6.8-14.6c-1.4-5.2-2.1-10.6-4.9-15.1
		c-1.4,1.8-2.7,3.7-4.1,5.5c0.2-0.3-0.2-1.8-0.3-2.2c-0.1-0.9-0.3-1.8-0.4-2.7c-0.3-1.8-0.6-3.6-0.8-5.4c-0.4-2.5-0.7-5-0.7-7.5
		C248.1,203,247.9,200.5,249,198.4C249,198.5,249,198.5,249,198.4z"/>
	<path class="st1" d="M205.7,123.7c5.7-0.2,11.5-0.2,17.2,0.2c4.9,0.3,9.4,1.2,13.7,3.4c4.2,2.1,8.1,4.8,11.8,7.9
		c2.8,2.3,5.4,4.9,7.8,7.6c0.3,0.3,4.2,5,3.8,5.2c-3.8,1.2-7.6,2.4-11.6,2.5c-2.8,0.1-5.6-0.3-8.2-1.1c-4.8-1.6-9.1-4.8-13.2-7.7
		c-3.7-2.7-7-5.5-10.1-8.9C213.8,129.2,209.6,126.3,205.7,123.7z"/>
</g>
</svg>
